<svg xmlns="http://www.w3.org/2000/svg" width="214" height="70" viewBox="0 0 214 70">
    <g fill="none" fill-rule="evenodd">
        <path fill="#000" fill-rule="nonzero" d="M13.762 69.458c-.551 0-1.089-.007-1.635-.02a22.865 22.865 0 0 1-3.38-.295 10.614 10.614 0 0 1-2.995-.994 9.775 9.775 0 0 1-2.526-1.844 9.65 9.65 0 0 1-1.845-2.533c-.478-.946-.81-1.96-.982-3.006a22.59 22.59 0 0 1-.3-3.401c-.012-.383-.027-1.657-.027-1.657V13.806s.016-1.254.026-1.623a22.51 22.51 0 0 1 .3-3.396C.57 7.738.9 6.721 1.38 5.772a9.746 9.746 0 0 1 1.836-2.535A10.064 10.064 0 0 1 5.75 1.382C6.692.905 7.7.572 8.74.395a22.683 22.683 0 0 1 3.39-.297l1.631-.022h185.806l1.65.023a22.32 22.32 0 0 1 3.36.295c1.051.179 2.07.513 3.021.993a10.13 10.13 0 0 1 4.367 4.39c.47.942.797 1.95.967 2.99.188 1.133.293 2.277.315 3.424.005.514.005 1.066.005 1.615.014.68.014 1.327.014 1.98V53.75c0 .66 0 1.302-.014 1.95 0 .59 0 1.13-.007 1.687a23.167 23.167 0 0 1-.31 3.362 10.434 10.434 0 0 1-.976 3.03 9.94 9.94 0 0 1-1.836 2.513 9.788 9.788 0 0 1-2.53 1.855c-.95.482-1.966.818-3.016.997a22.604 22.604 0 0 1-3.38.296c-.529.012-1.083.02-1.622.02l-1.96.003-183.854-.004z"/>
        <path fill="#FFF" fill-rule="nonzero" d="M74.976 46.206h-8.558l-2.055 6.088h-3.625l8.106-22.525h3.766l8.106 22.525h-3.687l-2.053-6.088zm-7.672-2.81h6.784l-3.344-9.88h-.094l-3.346 9.88zm30.918.688c0 5.103-2.723 8.382-6.831 8.382a5.545 5.545 0 0 1-5.15-2.873h-.078v8.134h-3.36V35.872h3.252v2.731h.062a5.802 5.802 0 0 1 5.212-2.903c4.154 0 6.893 3.295 6.893 8.384zm-3.454 0c0-3.325-1.712-5.511-4.325-5.511-2.568 0-4.294 2.232-4.294 5.51 0 3.31 1.726 5.526 4.294 5.526 2.613 0 4.325-2.17 4.325-5.525zm21.47 0c0 5.103-2.722 8.382-6.831 8.382a5.545 5.545 0 0 1-5.15-2.873h-.078v8.134h-3.36V35.872h3.252v2.731h.062a5.802 5.802 0 0 1 5.212-2.903c4.155 0 6.893 3.295 6.893 8.384zm-3.453 0c0-3.325-1.713-5.511-4.326-5.511-2.567 0-4.294 2.232-4.294 5.51 0 3.31 1.727 5.526 4.294 5.526 2.613 0 4.326-2.17 4.326-5.525zm15.36 1.934c.25 2.234 2.412 3.7 5.368 3.7 2.832 0 4.87-1.466 4.87-3.48 0-1.749-1.23-2.795-4.139-3.513l-2.91-.703c-4.122-1-6.036-2.934-6.036-6.073 0-3.886 3.376-6.555 8.17-6.555 4.743 0 7.996 2.669 8.105 6.555h-3.392c-.203-2.247-2.055-3.604-4.762-3.604-2.706 0-4.558 1.373-4.558 3.37 0 1.593 1.183 2.53 4.076 3.248l2.474.609c4.607 1.093 6.52 2.95 6.52 6.244 0 4.214-3.345 6.854-8.667 6.854-4.979 0-8.34-2.578-8.558-6.652h3.44zm21.038-14.033v3.887h3.113v2.67h-3.113v9.053c0 1.406.623 2.062 1.992 2.062.37-.007.738-.033 1.105-.078v2.653a9.198 9.198 0 0 1-1.866.156c-3.314 0-4.607-1.249-4.607-4.434v-9.413h-2.38v-2.67h2.38v-3.886h3.376zm4.916 12.099c0-5.167 3.033-8.414 7.763-8.414 4.746 0 7.765 3.247 7.765 8.414 0 5.181-3.003 8.414-7.765 8.414-4.76 0-7.763-3.233-7.763-8.414zm12.105 0c0-3.545-1.62-5.637-4.342-5.637-2.723 0-4.34 2.108-4.34 5.637 0 3.559 1.617 5.635 4.34 5.635s4.342-2.076 4.342-5.635zm6.193-8.212h3.205v2.795h.078a3.906 3.906 0 0 1 3.937-2.967c.387-.002.773.04 1.151.126v3.153a4.683 4.683 0 0 0-1.51-.204 3.38 3.38 0 0 0-2.616 1.081 3.404 3.404 0 0 0-.885 2.697v9.741h-3.36V35.872zM196.26 47.47c-.452 2.981-3.346 5.027-7.049 5.027-4.762 0-7.717-3.2-7.717-8.336 0-5.151 2.971-8.492 7.576-8.492 4.529 0 7.377 3.12 7.377 8.1v1.155h-11.561v.204a4.286 4.286 0 0 0 1.155 3.323 4.256 4.256 0 0 0 3.248 1.329 3.702 3.702 0 0 0 3.78-2.31h3.19zM184.9 42.569h8.184a3.957 3.957 0 0 0-1.1-2.964 3.93 3.93 0 0 0-2.915-1.204 4.137 4.137 0 0 0-2.95 1.213 4.165 4.165 0 0 0-1.219 2.955z"/>
        <text fill="#FFF" font-family="SFUIDisplay-Regular, SF UI Display" font-size="15.026">
            <tspan x="63.28" y="19.623">Загрузите в</tspan>
        </text>
        <path fill="#FFF" fill-rule="nonzero" d="M43.275 33.8a8.983 8.983 0 0 1 4.261-7.53 9.15 9.15 0 0 0-7.216-3.915c-3.036-.32-5.98 1.823-7.526 1.823-1.578 0-3.96-1.791-6.525-1.738a9.606 9.606 0 0 0-8.087 4.948c-3.496 6.074-.888 15 2.461 19.91 1.676 2.404 3.635 5.09 6.198 4.994 2.507-.104 3.444-1.604 6.471-1.604 3 0 3.878 1.604 6.493 1.544 2.69-.044 4.386-2.415 6.003-4.842a19.911 19.911 0 0 0 2.745-5.61 8.675 8.675 0 0 1-5.278-7.98zm-4.938-14.674a8.858 8.858 0 0 0 2.015-6.331 8.954 8.954 0 0 0-5.8 3.01 8.427 8.427 0 0 0-2.067 6.097c2.271.024 4.428-1 5.852-2.776z"/>
    </g>
</svg>
