<svg xmlns="http://www.w3.org/2000/svg" width="31" height="20" viewBox="0 0 31 20">
    <g fill="#F0935A" fill-rule="evenodd">
        <path fill-rule="nonzero" d="M30.13 2.065h-1.686v-.09a.849.849 0 0 0-.572-.796c-2.088-.743-4.22-1.12-6.335-1.12-2.015 0-4.045.342-6.037 1.017A18.813 18.813 0 0 0 9.463.059c-2.115 0-4.247.377-6.335 1.12a.849.849 0 0 0-.572.795v.091H.871A.86.86 0 0 0 0 2.913v16.18c0 .468.39.848.87.848h29.26c.48 0 .87-.38.87-.848V2.913a.86.86 0 0 0-.87-.848zm-3.428.513v12.75a18.632 18.632 0 0 0-5.166-.743c-1.722 0-3.454.25-5.165.743V2.578a16.956 16.956 0 0 1 5.166-.824c1.719 0 3.454.277 5.165.824zm-22.404 0a16.956 16.956 0 0 1 5.165-.824c1.72 0 3.455.277 5.166.824v12.75a18.633 18.633 0 0 0-5.166-.743c-1.722 0-3.454.25-5.165.743V2.578zM1.742 3.76h.814V16.5c0 .277.139.536.372.694a.888.888 0 0 0 .798.102c1.896-.674 3.826-1.016 5.737-1.016 1.719 0 3.454.277 5.166.824v1.142H1.742V3.76zm27.516 14.486H16.371v-1.142a16.959 16.959 0 0 1 5.165-.824c1.91 0 3.842.342 5.738 1.016a.891.891 0 0 0 .798-.102.841.841 0 0 0 .372-.694V3.76h.814v14.486z"/>
        <path d="M6.931 6.576h4.552c.48 0 .87-.38.87-.847a.86.86 0 0 0-.87-.848H6.93a.86.86 0 0 0-.87.848c0 .468.39.847.87.847zM12.353 10.475a.86.86 0 0 0-.87-.848H6.93a.86.86 0 0 0-.87.848c0 .468.39.847.87.847h4.552c.48 0 .87-.38.87-.847zM19.517 6.576h4.552c.48 0 .87-.38.87-.847a.86.86 0 0 0-.87-.848h-4.552a.86.86 0 0 0-.87.848c0 .468.39.847.87.847zM19.517 11.322h4.552c.48 0 .87-.38.87-.847a.86.86 0 0 0-.87-.848h-4.552a.86.86 0 0 0-.87.848c0 .468.39.847.87.847z"/>
    </g>
</svg>
