<svg xmlns="http://www.w3.org/2000/svg" width="20" height="20" viewBox="0 0 20 20">
    <path fill="#F0935A" fill-rule="nonzero" d="M15.539 1.67c4.59 3.048 5.842 9.253 2.79 13.835a9.932 9.932 0 0 1-6.353 4.257 9.924 9.924 0 0 1-7.183-1.266l-3.735 1.017a.833.833 0 0 1-.973-1.156 7.452 7.452 0 0 0 .382-5.387c-.134-.424-.24-.86-.315-1.294a9.905 9.905 0 0 1 1.677-7.452A9.941 9.941 0 0 1 8.295.14a.857.857 0 0 1 .13-.012 9.976 9.976 0 0 1 7.114 1.543zm1.403 12.914c2.543-3.818 1.501-8.99-2.325-11.528a8.311 8.311 0 0 0-6.029-1.27.965.965 0 0 1-.12.013 8.27 8.27 0 0 0-5.276 3.383 8.252 8.252 0 0 0-1.398 6.21c.062.36.152.726.264 1.084a9.132 9.132 0 0 1 .11 5.012l2.542-.693a.83.83 0 0 1 .681.109 8.29 8.29 0 0 0 6.257 1.228 8.277 8.277 0 0 0 5.294-3.548zM10.003 4.91c.461 0 .834.371.834.831v4.99a.832.832 0 0 1-1.667 0V5.74c0-.46.373-.831.833-.831zm.766 8.913c.042.1.067.207.067.316a.827.827 0 0 1-.067.316.96.96 0 0 1-.175.274.973.973 0 0 1-.275.175.827.827 0 0 1-.315.066.83.83 0 0 1-.317-.066.964.964 0 0 1-.275-.175.96.96 0 0 1-.175-.274.827.827 0 0 1-.067-.316c0-.109.025-.217.067-.316.042-.108.1-.2.175-.275a.833.833 0 0 1 1.049-.1c.05.025.092.067.133.1a.775.775 0 0 1 .175.275z"/>
</svg>
