<svg xmlns="http://www.w3.org/2000/svg" width="26" height="24" viewBox="0 0 26 24">
    <g fill="#F0935A" fill-rule="evenodd" stroke="#F0935A" stroke-width="1.2">
        <path d="M3.733 12.42a.333.333 0 0 1-.276-.145l-2.4-3.534a.334.334 0 0 1 .552-.374l2.212 3.258 3.257-2.213a.334.334 0 0 1 .375.552l-3.534 2.4a.334.334 0 0 1-.186.057z"/>
        <path d="M13.953 22.64a10.55 10.55 0 0 1-8.751-4.652.333.333 0 1 1 .552-.373 9.883 9.883 0 0 0 8.2 4.359c5.451 0 9.887-4.435 9.887-9.887 0-5.452-4.436-9.888-9.888-9.888s-9.887 4.436-9.887 9.888a.333.333 0 0 1-.667 0c0-5.82 4.735-10.554 10.554-10.554 5.82 0 10.554 4.734 10.554 10.554 0 5.819-4.734 10.554-10.554 10.554z"/>
        <path d="M17.138 16.267a.333.333 0 0 1-.257-.121l-3.184-3.847a.336.336 0 0 1-.077-.212V5.695a.333.333 0 0 1 .667 0v6.272l3.108 3.754a.334.334 0 0 1-.257.546z"/>
    </g>
</svg>
