<svg xmlns="http://www.w3.org/2000/svg" width="242" height="70" viewBox="0 0 242 70">
    <defs>
        <linearGradient id="a" x1="91.488%" x2="-38.352%" y1="4.948%" y2="71.907%">
            <stop offset="0%" stop-color="#00A0FF"/>
            <stop offset="1%" stop-color="#00A1FF"/>
            <stop offset="26%" stop-color="#00BEFF"/>
            <stop offset="51%" stop-color="#00D2FF"/>
            <stop offset="76%" stop-color="#00DFFF"/>
            <stop offset="100%" stop-color="#00E3FF"/>
        </linearGradient>
        <linearGradient id="b" x1="107.685%" x2="-130.64%" y1="50%" y2="50%">
            <stop offset="0%" stop-color="#FFE000"/>
            <stop offset="41%" stop-color="#FFBD00"/>
            <stop offset="78%" stop-color="#FFA500"/>
            <stop offset="100%" stop-color="#FF9C00"/>
        </linearGradient>
        <linearGradient id="c" x1="86.219%" x2="-50.15%" y1="17.877%" y2="194.703%">
            <stop offset="0%" stop-color="#FF3A44"/>
            <stop offset="100%" stop-color="#C31162"/>
        </linearGradient>
        <linearGradient id="d" x1="-18.754%" x2="42.121%" y1="-54.052%" y2="24.917%">
            <stop offset="0%" stop-color="#32A071"/>
            <stop offset="7%" stop-color="#2DA771"/>
            <stop offset="48%" stop-color="#15CF74"/>
            <stop offset="80%" stop-color="#06E775"/>
            <stop offset="100%" stop-color="#00F076"/>
        </linearGradient>
    </defs>
    <g fill="none" fill-rule="evenodd">
        <path fill="#000" fill-rule="nonzero" d="M233.66.19a7.573 7.573 0 0 1 7.574 7.574v54.095a7.573 7.573 0 0 1-7.573 7.573H8.264A7.573 7.573 0 0 1 .69 61.86V7.764A7.573 7.573 0 0 1 8.264.19H233.66z"/>
        <path fill="#FFF" fill-rule="nonzero" d="M122.116 37.967a7.663 7.663 0 1 0 7.7 7.663 7.555 7.555 0 0 0-7.7-7.663zm0 12.316a4.652 4.652 0 1 1 4.328-4.653 4.436 4.436 0 0 1-4.328 4.653zM105.33 37.967a7.663 7.663 0 1 0 7.681 7.663 7.555 7.555 0 0 0-7.7-7.663h.019zm0 12.316a4.652 4.652 0 1 1 4.31-4.653 4.436 4.436 0 0 1-4.328 4.653h.018zM85.33 40.329v3.246h7.79a6.798 6.798 0 0 1-1.803 4.093 7.97 7.97 0 0 1-6.005 2.38 8.655 8.655 0 1 1 0-17.31 8.295 8.295 0 0 1 5.897 2.326l2.29-2.29a11.342 11.342 0 0 0-8.169-3.372 11.919 11.919 0 1 0 0 23.82 10.819 10.819 0 0 0 8.313-3.336 10.819 10.819 0 0 0 2.813-7.61 10.585 10.585 0 0 0-.18-2.037l-10.946.09zm81.702 2.524a7.213 7.213 0 0 0-6.563-4.886 7.213 7.213 0 0 0-7.213 7.663 7.501 7.501 0 0 0 7.61 7.664 7.627 7.627 0 0 0 6.383-3.39l-2.615-1.803a4.382 4.382 0 0 1-3.769 2.127 3.895 3.895 0 0 1-3.714-2.326l10.26-4.237-.379-.812zm-10.458 2.561a4.201 4.201 0 0 1 4.003-4.472 2.975 2.975 0 0 1 2.849 1.623l-6.852 2.849zm-8.33 7.429h3.371v-22.54h-3.372v22.54zm-5.519-13.163h-.126a5.41 5.41 0 0 0-4.039-1.803 7.682 7.682 0 0 0 0 15.345 5.23 5.23 0 0 0 4.04-1.803h.107v1.1c0 2.939-1.568 4.507-4.093 4.507a4.237 4.237 0 0 1-3.859-2.722l-2.939 1.226a7.303 7.303 0 0 0 6.798 4.526c3.95 0 7.213-2.326 7.213-7.988v-13.65h-3.102v1.262zm-3.858 10.603a4.67 4.67 0 0 1 0-9.305 4.328 4.328 0 0 1 4.093 4.652 4.292 4.292 0 0 1-4.111 4.653h.018zm43.961-19.98h-8.06v22.54h3.372v-8.547h4.706a7.014 7.014 0 1 0 0-13.993h-.018zm0 10.82h-4.706V33.44h4.778a3.868 3.868 0 0 1 0 7.735l-.072-.054zm20.79-3.246a6.311 6.311 0 0 0-6.004 3.444l2.993 1.244a3.192 3.192 0 0 1 3.066-1.659 3.246 3.246 0 0 1 3.606 2.903v.235a7.447 7.447 0 0 0-3.516-.866c-3.228 0-6.492 1.803-6.492 5.067a5.211 5.211 0 0 0 5.59 4.959 4.742 4.742 0 0 0 4.328-2.164h.108v1.803h3.246V44.17c0-3.95-2.993-6.24-6.834-6.24l-.09-.053zm-.414 12.351c-1.1 0-2.633-.559-2.633-1.91 0-1.804 1.912-2.4 3.607-2.4a5.987 5.987 0 0 1 3.065.758 4.075 4.075 0 0 1-3.949 3.607l-.09-.055zm19.168-11.81l-3.86 9.773h-.107l-4.003-9.773h-3.607l6.005 13.668-3.426 7.591h3.516l9.232-21.26h-3.75zM192.06 52.843h3.372v-22.54h-3.372v22.54z"/>
        <text fill="#FFF" font-family="SFUIDisplay-Regular, SF UI Display" font-size="15.026" transform="translate(.5)">
            <tspan x="72.377" y="18.508">Загрузите в</tspan>
        </text>
        <g fill-rule="nonzero">
            <path fill="url(#a)" d="M1.303.974a3.606 3.606 0 0 0-.83 2.524v39.886c-.054.917.242 1.82.83 2.525l.126.126 22.342-22.323v-.523L1.429.847l-.126.127z" transform="translate(16.52 11.12)"/>
            <path fill="url(#b)" d="M31.164 31.159l-7.393-7.447v-.523l7.393-7.465.162.09 8.853 5.03c2.525 1.425 2.525 3.77 0 5.212l-8.817 5.013-.198.09z" transform="translate(16.52 11.12)"/>
            <path fill="url(#c)" d="M31.38 31.05l-7.61-7.609L1.304 45.91a2.94 2.94 0 0 0 3.75.108l26.345-14.966" transform="translate(16.52 11.12)"/>
            <path fill="url(#d)" d="M31.38 15.832L5.036.866a2.94 2.94 0 0 0-3.751.108L23.77 23.44l7.609-7.61z" transform="translate(16.52 11.12)"/>
            <path fill="#000" d="M47.683 42.008L21.555 56.884c-1.07.8-2.537.8-3.606 0l-.127.126.127.127a2.993 2.993 0 0 0 3.606 0L47.9 42.17l-.216-.162z" opacity=".2"/>
            <path fill="#000" d="M17.822 56.776a3.606 3.606 0 0 1-.829-2.524v.27c-.055.916.242 1.82.83 2.524l.126-.126-.127-.144zM56.7 36.905l-9.016 5.103.162.162 8.854-5.013a3.156 3.156 0 0 0 1.803-2.596 3.354 3.354 0 0 1-1.803 2.344z" opacity=".12"/>
            <path fill="#FFF" d="M21.555 12.238L56.7 32.217a3.354 3.354 0 0 1 1.803 2.344 3.156 3.156 0 0 0-1.803-2.597L21.555 11.985c-2.524-1.424-4.58-.234-4.58 2.65v.271c.054-2.903 2.074-4.093 4.58-2.668z" opacity=".25"/>
        </g>
    </g>
</svg>
