<svg xmlns="http://www.w3.org/2000/svg" width="22" height="22" viewBox="0 0 22 22">
    <path fill="#FFF" fill-rule="nonzero" d="M11 22C4.925 22 0 17.075 0 11S4.925 0 11 0s11 4.925 11 11-4.925 11-11 11zm-1.232-9.704h1.443c0-.364.06-.663.182-.897.121-.234.269-.44.442-.617.173-.178.364-.345.572-.501.208-.156.399-.336.572-.54.173-.203.318-.45.436-.74.117-.29.175-.657.175-1.099 0-.667-.23-1.198-.689-1.593-.46-.394-1.096-.591-1.911-.591-.607 0-1.124.074-1.553.221a4.715 4.715 0 0 0-1.138.559l.65 1.248a3.786 3.786 0 0 1 .832-.423c.156-.056.312-.1.468-.13a2.32 2.32 0 0 1 .442-.045c.433 0 .734.091.903.273.17.182.254.425.254.728 0 .234-.056.435-.169.605a2.722 2.722 0 0 1-.422.487c-.17.156-.351.318-.546.488a2.9 2.9 0 0 0-.52.598c-.152.23-.271.502-.358.819-.087.316-.108.7-.065 1.15zm-.26 1.846c0 .303.095.546.286.728.19.182.442.273.754.273.33 0 .59-.091.78-.273.19-.182.286-.425.286-.728s-.095-.544-.286-.721c-.19-.178-.45-.267-.78-.267-.312 0-.563.089-.754.267-.19.177-.286.418-.286.721z" opacity=".2"/>
</svg>
