<?xml version="1.0" encoding="UTF-8"?>
<svg width="20px" height="14px" viewBox="0 0 20 14" version="1.1" xmlns="http://www.w3.org/2000/svg" xmlns:xlink="http://www.w3.org/1999/xlink">
    <!-- Generator: Sketch 51.3 (57544) - http://www.bohemiancoding.com/sketch -->
    <title>Shape</title>
    <desc>Created with Sketch.</desc>
    <defs></defs>
    <g id="Page-1" stroke="none" stroke-width="1" fill="none" fill-rule="evenodd">
        <g id="iconfinder_menu-alt_134216" transform="translate(-59.000000, -24.000000)" fill="#FFFFFF" fill-rule="nonzero">
            <g id="icons8-menu" transform="translate(58.000000, 24.000000)">
                <path d="M2,-8.60043373e-17 C1.63936408,-0.00510028955 1.30391864,0.184375296 1.12211228,0.49587285 C0.940305922,0.807370403 0.940305922,1.1926296 1.12211228,1.50412715 C1.30391864,1.8156247 1.63936408,2.00510029 2,2 L20,2 C20.3606359,2.00510029 20.6960814,1.8156247 20.8778877,1.50412715 C21.0596941,1.1926296 21.0596941,0.807370403 20.8778877,0.49587285 C20.6960814,0.184375296 20.3606359,-0.00510028955 20,-8.60043373e-17 L2,-8.60043373e-17 Z M2,6 C1.63936408,5.99489971 1.30391864,6.1843753 1.12211228,6.49587285 C0.940305922,6.8073704 0.940305922,7.1926296 1.12211228,7.50412715 C1.30391864,7.8156247 1.63936408,8.00510029 2,8 L20,8 C20.3606359,8.00510029 20.6960814,7.8156247 20.8778877,7.50412715 C21.0596941,7.1926296 21.0596941,6.8073704 20.8778877,6.49587285 C20.6960814,6.1843753 20.3606359,5.99489971 20,6 L2,6 Z M2,12 C1.63936408,11.9948997 1.30391864,12.1843753 1.12211228,12.4958728 C0.940305922,12.8073704 0.940305922,13.1926296 1.12211228,13.5041272 C1.30391864,13.8156247 1.63936408,14.0051003 2,14 L20,14 C20.3606359,14.0051003 20.6960814,13.8156247 20.8778877,13.5041272 C21.0596941,13.1926296 21.0596941,12.8073704 20.8778877,12.4958728 C20.6960814,12.1843753 20.3606359,11.9948997 20,12 L2,12 Z" id="Shape"></path>
            </g>
        </g>
    </g>
</svg>