<svg xmlns="http://www.w3.org/2000/svg" width="23" height="26" viewBox="0 0 23 26">
    <path fill="#F0935A" fill-rule="nonzero" stroke="#F0935A" stroke-width=".5" d="M22 1.68a.682.682 0 0 0-.281-.548.712.712 0 0 0-.618-.101L8.154 5.391a.682.682 0 0 0-.48.649v13.433c-.73-.498-1.666-.77-2.647-.77-1.037 0-2.024.307-2.775.86C1.445 20.162 1 20.972 1 21.852c0 .88.445 1.69 1.252 2.288.751.553 1.732.86 2.775.86 1.042 0 2.024-.307 2.775-.86.807-.598 1.252-1.408 1.252-2.288V11.15L20.62 7.217v7.876c-.73-.498-1.666-.77-2.647-.77-1.037 0-2.024.307-2.775.86-.807.599-1.252 1.408-1.252 2.288 0 .88.445 1.69 1.252 2.289.751.553 1.733.86 2.775.86 1.043 0 2.024-.307 2.775-.86C21.555 19.16 22 18.35 22 17.47V1.68zM5.027 23.642c-1.436 0-2.647-.82-2.647-1.79 0-.97 1.21-1.79 2.647-1.79 1.436 0 2.647.82 2.647 1.79 0 .975-1.211 1.79-2.647 1.79zm4.027-13.92v-3.19L20.62 2.606v3.189L9.054 9.72zm8.924 9.54c-1.436 0-2.647-.82-2.647-1.79 0-.971 1.211-1.791 2.647-1.791 1.436 0 2.647.82 2.647 1.79-.005.971-1.216 1.79-2.647 1.79z"/>
</svg>
