<svg xmlns="http://www.w3.org/2000/svg" width="24" height="24" viewBox="0 0 24 24">
    <path fill="#F0935A" fill-rule="nonzero" d="M15.91 8.627c3.992 0 7.24 3.248 7.24 7.24 0 4.005-3.252 7.283-7.24 7.283-3.99 0-7.24-3.28-7.24-7.283 0-.171.007-.343.019-.516a7.23 7.23 0 0 1-.556.022C4.128 15.373.85 12.12.85 8.133.85 4.136 4.136.85 8.133.85c3.99 0 7.24 3.28 7.24 7.283 0 .17-.007.342-.02.516.186-.015.371-.022.557-.022zm-2.126-.494c0-3.14-2.536-5.694-5.651-5.694a5.7 5.7 0 0 0-5.694 5.694c0 3.115 2.554 5.65 5.694 5.65.289 0 .578-.022.864-.065a7.235 7.235 0 0 1 1.322-2.446 6.228 6.228 0 0 0-.511-.402 2.97 2.97 0 0 0-1.675-.497 3.05 3.05 0 0 0-2.173.9.796.796 0 0 1-1.124-1.124 4.633 4.633 0 0 1 3.297-1.365c1.448 0 2.82.743 3.32 1.382a7.226 7.226 0 0 1 2.269-1.2 5.71 5.71 0 0 0 .062-.833zM15.91 21.56c3.116 0 5.65-2.554 5.65-5.694a5.657 5.657 0 0 0-5.65-5.65 5.657 5.657 0 0 0-5.65 5.65c0 3.14 2.535 5.694 5.65 5.694zm3.254-3.687a4.632 4.632 0 0 1-3.297 1.366 4.632 4.632 0 0 1-3.296-1.366.795.795 0 1 1 1.123-1.123c.581.58 1.352.9 2.173.9s1.592-.32 2.173-.9a.795.795 0 1 1 1.124 1.123zm-5.875-5.38c.439 0 .795.356.795.795v1.29a.795.795 0 0 1-1.59 0v-1.29c0-.439.356-.794.795-.794zM5.555 4.76c.438 0 .794.356.794.795v1.289a.795.795 0 0 1-1.589 0v-1.29c0-.438.356-.794.795-.794zm12.89 7.735c.44 0 .795.355.795.794v1.29a.795.795 0 0 1-1.59 0v-1.29c0-.439.357-.794.795-.794zM10.711 4.76c.439 0 .794.356.794.795v1.289a.795.795 0 0 1-1.589 0v-1.29c0-.438.356-.794.795-.794z"/>
</svg>
