<svg xmlns="http://www.w3.org/2000/svg" width="27" height="23" viewBox="0 0 27 23">
    <path fill-rule="evenodd" d="M8.491 23c10.19 0 15.761-8.848 15.761-16.52 0-.252-.005-.502-.016-.75A11.593 11.593 0 0 0 27 2.722c-.993.462-2.06.773-3.181.914A5.786 5.786 0 0 0 26.254.425a10.799 10.799 0 0 1-3.517 1.41C21.727.704 20.287 0 18.694 0c-3.06 0-5.54 2.6-5.54 5.806 0 .456.048.899.143 1.324C8.693 6.887 4.611 4.577 1.88 1.063a6 6 0 0 0-.75 2.919c0 2.014.978 3.792 2.465 4.833a5.307 5.307 0 0 1-2.509-.727l-.001.074c0 2.813 1.91 5.16 4.444 5.693a5.317 5.317 0 0 1-2.502.1c.706 2.306 2.75 3.985 5.176 4.032-1.897 1.557-4.285 2.485-6.88 2.485-.448 0-.888-.026-1.322-.08C2.452 22.039 5.362 23 8.491 23"/>
</svg>
