<svg xmlns="http://www.w3.org/2000/svg" width="18" height="23" viewBox="0 0 18 23">
    <g fill="none" fill-rule="nonzero" stroke="#F0935A" stroke-width="2">
        <path d="M6.111 2.468C6.917 1.676 7.861 1.291 9 1.291c1.138 0 2.083.385 2.889 1.177.805.792 1.197 1.72 1.197 2.84 0 1.119-.392 2.047-1.197 2.84-.806.791-1.75 1.176-2.889 1.176-1.138 0-2.083-.385-2.889-1.177-.805-.791-1.197-1.72-1.197-2.84 0-1.118.392-2.047 1.197-2.839zM14.194 21.596H3.806c-.798 0-1.41-.237-1.87-.723-.452-.478-.672-1.13-.672-1.993 0-.449.014-.892.04-1.318.026-.417.08-.876.158-1.363.078-.481.177-.933.295-1.342.113-.392.267-.78.459-1.154a3.95 3.95 0 0 1 .624-.908c.217-.23.49-.42.812-.561.298-.13.632-.202.996-.213.044.026.123.076.25.168.26.188.56.403.891.638.374.264.855.503 1.43.709.587.21 1.186.318 1.78.318.595 0 1.195-.107 1.782-.318.575-.206 1.056-.445 1.43-.71.338-.24.63-.448.89-.637a3.38 3.38 0 0 1 .25-.168c.364.01.698.082.996.213.322.142.595.33.812.56.232.247.442.553.624.91.192.373.346.762.46 1.153.117.41.216.861.294 1.342.079.488.132.947.158 1.364.027.424.04.867.04 1.317 0 .863-.22 1.515-.67 1.993-.462.486-1.073.723-1.871.723z"/>
    </g>
</svg>
