<svg xmlns="http://www.w3.org/2000/svg" width="30" height="17" viewBox="0 0 30 17">
    <path fill-rule="evenodd" d="M14.683 16.937h1.791s.547-.058.814-.358c.256-.277.245-.785.245-.785s-.035-2.392 1.081-2.738c1.106-.347 2.513 2.31 4.014 3.327 1.128.774 1.989.6 1.989.6l4.013-.057s2.093-.127 1.105-1.768c-.082-.138-.582-1.213-2.978-3.419-2.513-2.322-2.175-1.94.85-5.95 1.837-2.436 2.581-3.927 2.349-4.562-.221-.612-1.57-.45-1.57-.45L23.871.8s-.337-.047-.581.104c-.245.138-.396.485-.396.485s-.71 1.883-1.663 3.488c-2.013 3.385-2.815 3.57-3.141 3.362-.768-.485-.57-1.975-.57-3.027 0-3.28.5-4.655-.977-5.001-.489-.116-.85-.197-2.105-.208-1.606-.012-2.978 0-3.746.38-.512.255-.907.81-.663.844.302.035.977.185 1.326.67.465.624.442 2.033.442 2.033s.268 3.87-.616 4.344c-.605.335-1.443-.347-3.234-3.42-.92-1.57-1.605-3.315-1.605-3.315s-.128-.324-.373-.497C5.68.834 5.272.765 5.272.765L.98.788s-.64.023-.884.3c-.21.243-.011.763-.011.763s3.361 7.797 7.153 11.736c3.49 3.593 7.445 3.35 7.445 3.35"/>
</svg>
